<?xml version="1.0" encoding="UTF-8" standalone="no"?>
<svg
   xmlns:dc="http://purl.org/dc/elements/1.1/"
   xmlns:cc="http://creativecommons.org/ns#"
   xmlns:rdf="http://www.w3.org/1999/02/22-rdf-syntax-ns#"
   xmlns:svg="http://www.w3.org/2000/svg"
   xmlns="http://www.w3.org/2000/svg"
   xmlns:sodipodi="http://sodipodi.sourceforge.net/DTD/sodipodi-0.dtd"
   xmlns:inkscape="http://www.inkscape.org/namespaces/inkscape"
   id="Layer_1"
   data-name="Layer 1"
   viewBox="0 0 145 26.97"
   version="1.1"
   sodipodi:docname="logo_red.svg"
   inkscape:version="0.92.3 (2405546, 2018-03-11)">
  <metadata
     id="metadata13">
    <rdf:RDF>
      <cc:Work
         rdf:about="">
        <dc:format>image/svg+xml</dc:format>
        <dc:type
           rdf:resource="http://purl.org/dc/dcmitype/StillImage" />
      </cc:Work>
    </rdf:RDF>
  </metadata>
  <sodipodi:namedview
     pagecolor="#ffffff"
     bordercolor="#666666"
     borderopacity="1"
     objecttolerance="10"
     gridtolerance="10"
     guidetolerance="10"
     inkscape:pageopacity="0"
     inkscape:pageshadow="2"
     inkscape:window-width="1858"
     inkscape:window-height="1058"
     id="namedview11"
     showgrid="false"
     inkscape:zoom="3.9172414"
     inkscape:cx="14.570266"
     inkscape:cy="10.549181"
     inkscape:window-x="2552"
     inkscape:window-y="352"
     inkscape:window-maximized="1"
     inkscape:current-layer="Layer_1" />
  <defs
     id="defs4">
    <style
       id="style2">.cls-1{fill:#d0d0d0}</style>
  </defs>
  <title
     id="title6">honeywell-logo</title>
  <path
     class="cls-1"
     d="M12.12 8h6.49v21.08h-6.49v-9.61H7v9.61H.5V8H7v8.78h5.08zm24.76 9.18a9.31 9.31 0 0 1 .49 7.36 7.46 7.46 0 0 1-3.63 4.18 10.46 10.46 0 0 1-4.6.92 9 9 0 0 1-5.42-1.56 7.76 7.76 0 0 1-2.94-4.24 8.82 8.82 0 0 1 1.14-7.37 7.93 7.93 0 0 1 5.32-3.13 8.86 8.86 0 0 1 1.7-.15 10.52 10.52 0 0 1 3.8.54 7.29 7.29 0 0 1 4.14 3.46zm-5.52 2.12a7.45 7.45 0 0 0-.36-2.51c-.31-.78-.87-1.67-1.81-1.67a1.22 1.22 0 0 0-.32 0c-.51.09-1 .62-1.43 1.58a10.87 10.87 0 0 0-.39 4v1.69c-.05 2.78.19 3.6.79 4.5a1.82 1.82 0 0 0 1.21.86 1.39 1.39 0 0 0 1.09-.34 5 5 0 0 0 1.23-3c.01-.56.01-3.03-.01-5.1zm22-5.54a6.84 6.84 0 0 0-5.54.22 6.43 6.43 0 0 0-2.06 1.79v-2.06h-6.1v15.37h6.07V18a3.65 3.65 0 0 1 1.55-1.48 1.9 1.9 0 0 1 2.16.22 2.38 2.38 0 0 1 .49 1.62v10.72h6v-11.7a4.15 4.15 0 0 0-2.6-3.61zm20.75 3.55a10.57 10.57 0 0 1 1 5H64.22v3.12a2.74 2.74 0 0 0 .36 1c.25.33 1.12 1.61 4.09 1.14 3.29-.52 3.2-2.87 3.26-2.87h2.6a4 4 0 0 1-1.11 2.58 9.15 9.15 0 0 1-5.14 2.31c-2.14.22-5.17.28-7.62-1.75a8 8 0 0 1-2.49-3.68 9.49 9.49 0 0 1 .52-6.77 8.44 8.44 0 0 1 8.08-4.17c3.79.17 5.97 1.55 7.31 4.1zm-5.34 1.59a8.08 8.08 0 0 0-.24-2 3 3 0 0 0-.81-1.36 1.84 1.84 0 0 0-2.19-.15 3.3 3.3 0 0 0-1.13 2 19.65 19.65 0 0 0-.13 2.82h4.5c-.04-.21-.04-.56-.03-1.3zm60.53-1.59a10.57 10.57 0 0 1 .95 5h-10.84v3.12a2.74 2.74 0 0 0 .36 1c.24.33 1.12 1.61 4.09 1.14 3.28-.52 3.19-2.87 3.26-2.87h2.6a4 4 0 0 1-1.11 2.58 9.18 9.18 0 0 1-5.14 2.31c-2.14.22-5.17.28-7.62-1.75a8 8 0 0 1-2.5-3.68 9.5 9.5 0 0 1 .53-6.77A8.44 8.44 0 0 1 122 13.2c3.75.19 5.93 1.57 7.27 4.12zm-5.34 1.59a8.08 8.08 0 0 0-.24-2 3 3 0 0 0-.8-1.36 1.84 1.84 0 0 0-2.19-.15 3.3 3.3 0 0 0-1.13 2 19.84 19.84 0 0 0-.14 2.82h4.51c-.05-.21-.05-.56-.04-1.3zm-13.37-5.2l-2.34 8.62-2.61-8.62h-5.3L98 22.33l-2.69-8.62H87L84 21l-2.83-7.32h-6.66l6.14 15.75a2.68 2.68 0 0 1-.13.6 6.26 6.26 0 0 1-1.3 2.35 1.68 1.68 0 0 1-1.56.58 2.2 2.2 0 0 0 .51-.73 2.63 2.63 0 0 0-.17-1.92 2.36 2.36 0 0 0-2.74-1 2.48 2.48 0 0 0-2 2.87c.15 1.26 1 2.33 3 2.69a4.8 4.8 0 0 0 4.43-1.39 11 11 0 0 0 2-3.57l6.39-15.68 4.55 14.83h5.13l2.45-8.91 2.78 8.91h5l4.23-15.37zM132 29.08h5.83V8H132zM139.68 8v21.08h5.82V8z"
     transform="translate(-.5 -8.01)"
     id="path8" />
  <rect
     style="opacity:1;fill:#ee3124;fill-opacity:1;stroke:none;stroke-width:2;stroke-linecap:square;stroke-linejoin:miter;stroke-miterlimit:4;stroke-dasharray:none;stroke-dashoffset:0;stroke-opacity:1"
     id="rect4752"
     width="145"
     height="26.966002"
     x="0"
     y="0.0039994633" />
</svg>
